<svg xmlns="http://www.w3.org/2000/svg" viewBox="0 0 600 761"><rect width="600" height="761" fill="#0B1A2E"/><g fill="#11223A" stroke="#1E3654" stroke-width="1"><path d="M-85 704 -75 701 -69 696 -66 696 -64 697 -59 690 -50 685 -42 673 -30 673 -24 669 -22 670 -21 673 -19 674 -12 667 -7 668 -3 665 1 665 12 675 24 680 25 683 32 682 33 681 35 682 38 679 45 677 49 678 51 675 54 674 53 672 57 673 58 671 61 671 62 669 67 671 71 681 70 684 67 684 55 693 44 706 40 708 38 711 41 718 31 740 25 741 17 728 8 726 4 727 6 740 2 747 7 751 13 750 15 752 7 767 2 766 -8 767 -12 771 -16 768 -17 769 -24 768 -31 782 -36 780 -35 771 -39 771 -39 774 -44 774 -46 770 -52 765 -54 766 -61 762 -66 769 -74 774 -81 771 -82 758 -79 747 -76 742 -75 731 -80 723 -77 720 -79 713Z"/><path d="M533 421 551 348 537 342 537 341 543 330 548 327 549 323 558 317 562 323 576 332 585 347 672 368 674 365 710 370 725 379 739 375 737 379 739 385 736 391 735 396 737 403 754 409 758 415 758 419 762 426 758 436 741 462 724 482 721 488 723 489 720 503 717 509 718 517 720 518 718 525 719 527 724 530 727 539 730 540 732 542 734 542 736 547 741 552 738 572 733 580 735 583 733 591 717 589 712 573 712 567 708 560 695 551 688 539 676 537 671 516 672 510 666 502 665 496 659 492 650 490 630 465 625 463 617 463 608 457 602 446 591 441 593 436 592 432 579 424 553 429Z"/><path d="M188 -7 193 -6 209 5 179 24 178 36 170 41 169 46 163 56 164 62 160 65 150 77 145 79 139 88 141 91 135 104 135 121 138 128 136 151 132 160 130 159 130 155 124 149 122 138 115 127 109 133 103 130 90 114 85 112 82 108 79 107 77 104 76 106 73 95 62 97 -34 75 -60 58 -66 52 -85 24 -65 26 -54 19 -52 25 -50 24 -34 4 -30 6 -23 2 19 -27 29 -30 33 -35 39 -27 40 -23 45 -18 50 -24 59 -27 64 -30 65 -33 80 -24 82 -22 83 -17 85 -17 91 -14 95 -13 99 -15 100 -16 107 -18 112 -14 115 -14 116 -12 121 -10 127 -13 131 -12 136 -13 143 -13 156 -6 176 -8 184 -6Z"/><path d="M672 520 658 520 649 524 641 524 629 528 621 529 606 536 606 538 600 539 596 537 589 539 586 537 576 537 566 521 566 518 571 496 576 490 576 484 582 470 582 465 592 454 596 453 597 449 601 446 608 457 617 463 625 463 630 465 650 490 659 492 665 496 666 502 672 510 671 516Z"/><path d="M11 568 13 570 21 569 28 563 34 554 40 555 44 553 50 553 56 550 66 550 67 552 72 555 70 562 81 565 91 577 93 582 91 587 93 589 91 594 94 600 102 606 106 613 108 612 110 616 108 627 101 632 98 638 96 639 94 641 93 640 86 646 84 645 81 648 77 649 76 655 73 653 69 655 68 658 70 660 66 662 66 664 63 665 61 671 58 671 57 673 53 672 54 674 51 675 49 678 45 677 38 679 35 682 33 681 32 682 25 683 24 680 12 675 1 665 -3 665 6 658 8 658 9 653 12 652 12 650 15 649 14 648 21 641 20 639 24 635 25 630 22 618 18 615 15 605 12 600 10 590 7 585 6 578 3 574 5 571Z"/><path d="M369 -50 389 -62 392 -83 394 -83 397 -81 402 -81 408 -75 428 -73 438 -62 448 -57 448 -53 459 -47 454 -42 451 -35 450 -31 452 -26 452 -22 445 -21 448 -13 442 -6 444 3 444 12 438 20 438 24 440 31 447 35 444 41 434 41 434 42 420 41 415 43 413 42 404 41 390 48 388 46 385 52 383 52 384 45 381 46 380 44 394 -12 385 -16 379 -25 379 -28 375 -29 375 -32 370 -34Z"/><path d="M108 351 115 348 120 343 121 337 121 326 131 314 134 313 138 315 144 332 149 337 159 338 167 331 176 341 183 342 187 340 191 343 191 354 189 355 189 361 187 362 186 364 188 366 188 369 183 375 179 375 180 387 172 392 167 391 158 403 156 402 152 406 144 409 144 410 136 410 137 415 130 424 131 430 134 433 134 437 144 447 143 454 141 456 143 459 141 465 145 465 149 470 150 472 149 476 145 475 143 476 130 479 128 482 123 486 118 486 113 483 109 488 101 493 98 497 89 504 89 506 86 508 75 501 76 497 71 493 68 494 64 490 63 493 62 490 58 488 56 492 51 488 52 487 45 483 43 490 25 488 20 493 14 489 12 486 13 481 4 475 5 473 3 470 7 464 6 448 8 444 7 438 4 433 0 437 -6 432 -4 429 -9 418 -10 403 -3 387 -8 373 -2 366 0 368 22 363 24 364 26 369 24 378 26 379 36 378 39 385 50 380 51 379 51 374 53 376 56 374 58 376 61 370 64 369 72 372 88 372 99 368 104 362 103 361 110 356Z"/><path d="M307 -22 305 -4 312 -6 315 -6 314 -4 316 -4 323 -4 327 -1 328 10 332 13 334 18 332 21 332 24 328 26 325 33 326 35 324 36 326 53 324 54 322 61 320 62 320 65 310 54 299 54 294 45 294 36 281 34 270 37 260 51 255 52 253 54 249 46 251 35 247 30 238 24 227 24 220 26 214 19 203 10 209 5 193 -6 188 -7 211 -34 213 -36 235 -39 240 -39 246 -28 252 -28 253 -14 255 -10 278 -13 288 -9 292 -10 300 -15 301 -18Z"/><path d="M679 100 741 92 762 114 771 113 855 134 865 133 896 135 836 223 832 232 825 237 822 244 810 252 795 250 790 255 786 255 771 267 762 281 751 284 748 295 741 307 727 301 720 294 705 291 699 317 692 330 684 337 672 368 585 347 576 332 562 323 553 310 551 309 545 310 543 303 545 296 543 266 541 264 536 266 531 258 524 257 532 253 538 251 539 247 549 243 558 244 560 243 562 246 564 244 580 250 582 236 591 200 593 171 592 169 616 144 641 140 655 142 659 128 668 116 672 113 673 109 676 109 676 104Z"/><path d="M533 1086 499 1079 497 1082 495 1081 498 1067 496 1064 497 1058 508 1034 512 1031 515 1002 521 995 524 989 523 982 527 976 529 975 529 973 532 973 537 964 546 955 552 936 551 933 550 933 544 928 546 925 545 922 548 920 552 913 554 905 563 900 566 896 568 895 573 882 574 870 573 866 575 861 579 856 582 857 582 851 588 848 593 839 590 835 591 827 584 812 577 811 577 806 575 806 574 795 567 792 567 781 564 781 559 784 565 771 568 760 569 750 563 750 564 738 544 735 546 728 544 724 550 702 558 703 591 695 615 783 634 782 643 783 671 766 684 769 694 785 698 807 701 810 701 823 698 829 703 845 687 858 689 878 688 895 678 912 673 912 672 914 670 911 666 918 664 919 665 929 664 937 661 935 658 939 655 938 654 935 641 945 636 975 647 1021 647 1028 650 1034 649 1038 656 1083 654 1107 657 1112 633 1134 622 1188 633 1211 589 1187 588 1184 592 1176 592 1165 596 1154 596 1152 605 1143 610 1127 613 1122 614 1112 617 1109 622 1083 620 1078 621 1070 619 1066 621 1064 619 1060 619 1056 622 1051 619 1044 622 1034 620 1028 621 1020 616 1003 617 999 616 992 619 984 616 977 619 971 615 968 616 965 612 958 614 954 610 948 612 945 610 941 613 934 613 930 602 930 593 934 586 929 581 921 576 921 573 924 573 930 571 932 574 938 570 943 568 949 564 955 561 972 558 981 562 999 552 1017Z"/><path d="M544 735 535 766 534 778 524 774 520 775 517 770 490 770 492 760 486 723 488 714 486 710 480 707 486 702 489 694 500 678 504 677 507 673 511 653 520 630 573 628 591 695 558 703 550 702 545 720 546 728Z"/><path d="M534 778 535 766 544 735 564 738 563 750 569 750 568 760 565 771 559 784 564 781 567 781 567 792 574 795 575 806 577 806 577 811 584 812 591 827 590 835 593 839 588 848 582 851 582 857 579 856 575 861 573 866 574 870 573 882 568 895 566 896 563 900 554 905 552 913 548 920 545 922 546 925 544 928 550 933 551 933 552 936 546 955 537 964 532 973 529 973 529 975 527 976 523 982 524 989 521 995 515 1002 512 1031 508 1034 497 1058 496 1064 498 1067 495 1081 475 1063 475 1056 479 1047 480 1037 478 1024 498 939 504 942 513 933 513 925 518 918 519 908 521 901 520 902 519 895 514 893 518 873 522 872 524 851 528 834 528 812Z"/><path d="M46 270 59 267 64 288 69 296 66 294 75 312 72 318 87 334 96 337 98 341 103 339 110 356 103 361 104 362 99 368 88 372 72 372 64 369 61 370 58 376 56 374 53 376 51 374 51 379 50 380 39 385 36 378 26 379 24 378 26 369 23 363 -1 368 -4 358 -9 352 -17 347 -18 334 -24 331 -15 322 -12 308 -14 302 -13 300 -10 298 -9 304 4 304 6 300 14 297 13 293 16 291 25 291 32 279 37 278 39 281Z"/><path d="M34 554 28 563 21 569 12 570 5 566 -6 552 -15 533 -17 533 -16 532 -19 534 -20 545 -24 547 -27 554 -38 564 -38 566 -48 568 -52 572 -54 569 -58 573 -62 572 -64 574 -70 559 -73 560 -76 556 -78 558 -80 556 -80 554 -86 554 -92 551 -95 548 -94 546 -96 543 -94 542 -94 537 -97 532 -92 528 -92 526 -100 513 -102 499 -114 507 -120 507 -127 513 -132 512 -147 518 -150 518 -158 492 -162 486 -160 482 -156 482 -156 474 -152 469 -148 459 -146 445 -155 443 -146 417 -139 410 -138 406 -129 406 -126 402 -124 407 -122 406 -122 404 -125 398 -119 384 -122 379 -126 380 -130 377 -133 379 -140 377 -143 385 -147 383 -149 381 -149 378 -146 374 -148 366 -118 367 -107 364 -94 357 -95 364 -92 375 -91 391 -82 405 -67 406 -63 408 -53 426 -50 440 -45 440 -35 434 -35 432 -33 432 -34 431 -31 432 -24 426 -7 433 -6 432 0 437 4 433 7 438 8 444 6 448 7 464 3 470 5 473 4 475 13 481 12 486 14 489 20 493 14 509 17 510 19 512 18 522 20 524 19 526 20 532 30 539 38 549Z"/><path d="M577 538 564 540 563 543 547 542 548 544 538 552 527 551 522 554 519 552 517 555 515 553 507 552 459 564 438 505 502 503 524 485 532 474 536 466 536 461 531 445 533 421 553 429 568 427 574 425 581 425 587 430 592 432 593 436 591 441 601 446 597 449 596 453 592 454 582 465 582 470 576 484 576 490 571 496 567 507 566 521 574 536Z"/><path d="M-93 20 -94 19 -103 10 -98 4 -97 1 -105 -3 -101 -8 -100 -15 -101 -26 -100 -31 -105 -38 -107 -44 -120 -65 -112 -71 -108 -70 -107 -71 -100 -71 -91 -73 -89 -70 -72 -66 -62 -67 -59 -70 -62 -80 -59 -82 -58 -87 -55 -89 -54 -93 -50 -95 -44 -94 -43 -92 -37 -94 -34 -90 -36 -88 -37 -85 -33 -82 -31 -84 -28 -84 -27 -82 -17 -84 -12 -80 -17 -75 -12 -68 14 -64 13 -57 18 -57 18 -54 22 -55 25 -47 27 -47 26 -44 28 -44 26 -43 33 -36 29 -30 19 -27 -23 2 -30 6 -34 4 -50 24 -52 25 -54 19 -65 26 -85 24Z"/><path d="M93 582 91 577 82 565 70 562 72 555 67 552 66 550 56 550 50 553 44 553 40 555 34 554 38 549 30 539 20 532 19 526 20 524 18 522 19 512 17 510 14 509 20 493 25 488 44 490 45 483 52 487 51 488 56 492 58 488 62 490 63 493 64 490 68 494 71 493 76 497 75 501 86 508 89 506 89 504 98 497 101 493 109 488 112 483 116 484 114 492 118 493 118 497 122 505 121 507 124 513 122 513 122 519 116 527 121 532 128 534 127 542 129 549 125 556 110 567 112 572 105 577 102 575 101 577 96 573 95 580Z"/><path d="M90 792 86 799 83 796 80 796 73 809 66 814 63 822 56 826 53 823 52 821 50 820 42 823 30 820 23 812 20 810 18 811 20 795 10 785 17 778 9 773 7 767 15 752 13 750 7 751 2 747 6 740 4 727 8 726 17 728 25 741 31 740 41 718 38 711 40 708 44 706 55 693 67 684 72 687 70 693 71 699 75 702 85 699 90 703 88 715 90 715 82 729 86 761 95 766 103 768 100 770 103 772Z"/><path d="M470 188 483 184 487 185 489 188 491 188 496 185 504 184 510 181 514 176 517 165 519 163 523 153 533 146 532 152 537 155 537 157 542 156 542 161 548 160 548 162 562 164 562 166 573 168 583 173 592 169 593 171 591 200 582 236 580 250 564 244 562 246 560 243 558 244 549 243 539 247 538 251 532 253 524 257 520 255 515 244 511 239 502 238 493 240 490 238 484 233 483 223 472 214 472 206 469 197 471 190Z"/><path d="M-14 302 -17 296 -19 287 -24 282 -23 278 -26 276 -25 274 -28 270 -29 264 -27 254 -28 245 -27 237 -23 231 -18 229 -19 226 -12 222 -12 220 -9 217 -4 217 -1 219 8 206 10 208 11 207 14 208 20 214 24 202 32 199 49 200 50 203 55 204 54 207 58 209 60 207 66 209 62 223 46 270 40 280 39 281 37 278 32 279 25 291 16 291 13 293 14 297 6 300 4 304 -9 304 -10 298Z"/><path d="M262 748 242 748 236 743 236 730 234 720 230 714 233 705 231 701 196 692 181 686 176 678 167 673 167 671 164 668 166 657 163 655 161 656 157 653 155 654 153 650 154 646 152 641 154 638 152 636 157 629 154 623 158 616 152 612 152 607 150 604 152 595 154 591 151 589 157 579 157 576 154 573 162 562 185 547 193 543 202 547 206 553 206 563 219 567 220 572 228 577 223 595 235 602 255 636 274 652 268 666 272 679 271 704 268 730Z"/><path d="M257 800 261 793 305 791 335 782 348 770 349 767 355 766 356 763 364 759 377 758 375 766 377 767 376 769 379 773 378 774 381 777 379 767 389 770 390 770 390 766 400 767 402 768 405 755 408 750 414 748 415 742 426 740 431 742 433 740 430 744 431 747 437 758 438 756 443 757 462 770 464 768 472 767 477 763 490 770 483 791 480 796 478 813 471 834 476 846 464 877 439 874 431 871 431 872 420 866 421 865 416 867 414 865 403 866 396 861 368 856 361 846 360 847 348 840 330 841 320 840 320 832 323 826 328 820 326 818 317 819 304 816 296 817 289 813 269 806Z"/><path d="M11 568 5 571 3 574 6 578 7 585 10 590 12 600 15 605 18 615 22 618 22 624 25 627 24 635 20 639 21 641 14 648 15 649 12 650 12 652 9 653 8 658 6 658 -7 668 -12 667 -20 674 -22 673 -23 669 -23 652 -26 654 -32 661 -35 661 -47 650 -50 650 -52 653 -54 653 -56 648 -54 642 -60 636 -64 636 -74 640 -79 640 -86 637 -92 641 -95 640 -94 636 -90 631 -88 624 -81 624 -77 621 -74 612 -76 610 -75 606 -73 604 -71 595 -62 590 -50 570 -38 566 -34 560 -30 557 -25 551 -24 547 -20 544 -18 533 -15 533 -6 552 5 566Z"/><path d="M-83 125 -79 117 -85 113 -80 108 -82 104 -95 91 -104 91 -105 88 -104 86 -107 82 -106 74 -101 70 -104 68 -101 58 -104 57 -107 52 -107 40 -95 21 -93 20 -85 24 -66 52 -60 58 -34 75 62 97 73 95 76 106 77 104 79 107 82 108 85 112 90 114 103 130 109 133 115 127 122 138 124 149 130 155 130 159 132 160 134 158 136 151 138 128 135 121 180 136 187 142 184 150 100 185 85 194 81 199 70 204 66 209 60 207 58 209 54 207 55 204 50 203 49 200 32 199 24 202 20 214 14 208 11 207 10 208 8 206 -1 219 -4 217 -9 217 -12 213 -10 210 -12 204 -17 188 -23 178 -22 172 -23 170 -25 171 -28 165 -37 163 -40 161 -42 163 -44 156 -48 158 -51 156 -56 156 -57 138 -68 136 -67 132 -65 128 -74 124 -77 125 -79 124Z"/><path d="M703 845 698 829 701 823 701 810 698 807 694 785 684 769 671 766 643 783 634 782 615 783 573 628 520 630 459 564 507 552 515 553 517 555 519 552 522 554 527 551 538 552 548 544 547 542 563 543 564 540 579 537 586 537 589 539 596 537 600 539 606 538 606 536 621 529 629 528 641 524 649 524 658 520 672 520 676 537 688 539 695 551 708 561 712 567 712 573 717 589 732 591 732 595 736 599 752 606 756 611 758 617 766 625 775 628 778 626 797 654 805 656 808 662 811 684 821 696 819 698 819 702 826 719 824 721 819 735 813 744 811 758 816 778 819 785 818 800 814 808 804 812 808 819 808 822 805 826 803 827 802 834 804 842 809 849 809 867 804 895 781 892 774 894 766 901 767 904 765 906 759 899 754 898 750 896 745 887 742 888 738 893 733 894 730 871 709 860Z"/><path d="M679 100 680 98 677 88 678 84 672 80 669 75 663 78 656 77 655 75 656 74 657 70 636 51 611 33 604 34 585 40 583 46 578 50 571 54 568 53 568 54 559 64 554 64 543 71 540 72 538 71 531 75 519 71 516 67 505 68 504 66 490 65 488 68 484 68 482 69 482 72 478 73 475 78 468 79 465 78 460 80 459 83 455 84 454 86 448 85 446 91 428 86 425 82 422 80 420 83 415 84 414 87 411 87 408 91 397 95 388 101 385 100 378 111 359 117 354 116 356 112 356 103 359 96 332 91 327 84 319 78 311 84 290 70 279 64 272 64 269 67 264 65 261 62 255 63 256 59 253 55 254 52 260 51 270 37 281 34 288 35 294 36 294 45 299 54 310 54 320 65 320 62 322 61 324 54 326 53 324 36 326 35 325 33 328 26 332 24 332 21 334 18 332 13 328 10 327 -1 323 -4 316 -4 314 -4 315 -6 312 -6 305 -4 307 -21 309 -22 311 -25 314 -24 316 -24 319 -22 319 -20 324 -18 325 -19 325 -27 322 -36 323 -39 319 -42 315 -64 329 -65 334 -68 345 -69 348 -67 354 -67 359 -63 358 -60 367 -58 370 -48 370 -34 375 -32 375 -29 379 -28 379 -25 385 -16 394 -12 380 44 381 46 384 45 384 52 388 46 390 48 404 41 413 42 415 43 420 41 434 42 434 41 444 41 447 35 440 31 438 22 444 12 444 3 442 -4 448 -13 445 -21 452 -22 452 -26 450 -31 451 -35 454 -42 460 -48 462 -57 473 -77 480 -78 488 -88 500 -92 504 -101 517 -98 524 -101 530 -98 538 -101 554 -96 556 -99 558 -106 553 -114 560 -130 573 -146 570 -149 567 -147 560 -152 556 -151 558 -156 554 -165 559 -174 556 -189 558 -197 556 -201 567 -211 562 -212 557 -219 551 -219 546 -222 555 -233 554 -234 557 -240 556 -242 556 -248 562 -258 562 -262 550 -254 549 -255 558 -281 547 -284 544 -292 540 -294 534 -292 526 -293 531 -297 532 -302 530 -305 523 -306 520 -313 522 -321 526 -327 531 -329 533 -338 539 -340 546 -348 550 -354 551 -357 547 -366 542 -366 540 -367 540 -370 545 -376 544 -381 544 -385 559 -397 562 -390 566 -391 570 -381 573 -384 577 -382 577 -384 582 -385 593 -398 598 -400 600 -402 602 -399 603 -396 607 -395 609 -389 616 -386 618 -386 627 -394 635 -393 646 -388 653 -381 660 -368 664 -370 665 -374 684 -378 688 -370 683 -367 674 -356 665 -354 668 -344 665 -342 663 -335 668 -329 672 -328 673 -321 675 -319 678 -319 678 -315 679 -316 682 -313 692 -306 691 -303 686 -297 687 -294 685 -295 683 -291 685 -288 683 -286 697 -275 700 -265 701 -255 706 -241 715 -234 721 -236 729 -226 741 -218 745 -212 759 -208 765 -211 764 -214 766 -216 771 -215 773 -219 779 -218 784 -218 793 -224 812 -228 819 -227 832 -228 839 -226 843 -226 849 -220 856 -218 860 -220 864 -211 875 -208 883 -200 888 -198 891 -194 893 -194 894 -192 903 -185 905 -186 907 -181 911 -179 916 -174 924 -170 932 -160 938 -159 942 -153 949 -152 996 -120 992 -116 993 -106 995 -94 1005 -79 1005 -48 933 25 968 97 988 130 981 146 976 150 964 167 953 158 938 148 896 135 865 133 855 134 771 113 762 114 741 92Z"/><path d="M470 188 462 186 460 180 443 183 440 182 436 178 436 168 433 166 413 176 410 177 409 176 416 167 426 158 426 149 431 144 432 132 444 130 443 125 439 119 437 112 445 98 448 85 454 86 455 84 459 83 460 80 465 78 468 79 475 78 484 68 488 68 490 65 504 66 505 68 516 67 519 71 531 75 538 71 540 72 543 71 554 64 559 64 568 54 568 53 571 54 578 50 583 46 585 40 604 34 611 33 636 51 657 70 656 74 655 75 656 77 663 78 669 75 672 80 678 84 677 88 680 98 676 104 676 109 673 109 672 113 668 116 659 128 655 142 641 140 616 144 599 163 583 173 573 168 562 166 562 164 548 162 548 160 542 161 542 156 537 157 537 155 532 152 533 146 523 153 519 163 517 165 514 176 510 181 504 184 496 185 491 188 489 188 487 185 483 184Z"/><path d="M261 793 244 817 210 807 177 802 170 810 159 807 157 808 154 805 139 800 135 796 127 796 123 788 108 792 99 789 94 795 90 792 103 772 100 770 103 768 95 766 86 761 82 729 90 715 88 715 90 704 85 699 75 702 70 698 72 687 70 685 71 681 67 671 61 669 63 665 66 664 66 662 70 660 68 658 69 655 73 653 76 655 77 649 84 648 87 652 91 651 94 653 95 651 103 652 116 659 118 661 126 661 130 664 140 657 149 657 157 653 161 656 163 655 166 657 164 668 167 671 167 673 176 678 181 686 196 692 231 701 233 705 230 714 234 720 236 730 236 743 242 748 262 748 267 756 276 764 276 770Z"/></g></svg>